<svg width="420" height="229" viewBox="0 0 420 229" fill="none" xmlns="http://www.w3.org/2000/svg">
<g filter="url(#filter0_d_18_4)">
<mask id="path-1-outside-1_18_4" maskUnits="userSpaceOnUse" x="2" y="0" width="412" height="221" fill="black">
<rect fill="white" x="2" width="412" height="221"/>
<path d="M144.189 39.2621C144.189 43.4303 143.542 47.1674 142.248 50.4733C141.098 53.7791 139.445 56.7257 137.289 59.3129C135.132 61.9001 132.616 64.1998 129.741 66.2121C126.866 68.2244 123.703 70.0929 120.253 71.8177C121.834 72.3927 123.703 73.3269 125.859 74.6205C128.016 75.7704 130.1 77.4233 132.113 79.5793C134.126 81.7353 135.779 84.5381 137.073 87.9877C138.51 91.2936 139.229 95.39 139.229 100.277C139.229 106.745 137.864 112.71 135.132 118.172C132.401 123.634 128.303 128.377 122.84 132.401C117.521 136.282 110.908 139.372 103.001 141.672C95.2381 143.828 86.253 144.906 76.0459 144.906H12L41.1118 8H97.8259C103.433 8 108.967 8.4312 114.43 9.29361C120.037 10.0123 124.997 11.5215 129.31 13.8212C133.766 16.121 137.36 19.355 140.092 23.5232C142.823 27.5478 144.189 32.794 144.189 39.2621ZM85.5342 65.3497C88.697 65.3497 91.3566 64.4154 93.513 62.5469C95.8132 60.6784 97.6821 58.3786 99.1197 55.6477C100.557 52.773 101.636 49.7546 102.354 46.5925C103.073 43.2866 103.433 40.3401 103.433 37.7529C103.433 33.5846 102.426 30.0631 100.414 27.1884C98.5447 24.17 95.5257 22.6608 91.3566 22.6608H84.8873L75.6146 65.3497H85.5342ZM70.0079 131.323C74.3208 131.323 77.9148 130.102 80.7901 127.658C83.6653 125.215 86.0374 122.196 87.9063 118.603C89.7752 115.01 91.0691 111.273 91.7879 107.392C92.6504 103.367 93.0817 99.8458 93.0817 96.8274C93.0817 91.7967 92.0035 87.844 89.8471 84.9693C87.8344 81.9509 84.5279 80.4417 79.9275 80.4417H71.9487L61.3822 131.323H70.0079Z"/>
<path d="M304.427 144.906H256.554L276.393 51.7669L225.286 144.906H195.959L186.255 48.5329L165.553 144.906H146.145L175.257 8H230.246L236.931 85.1849L278.334 8H333.754L304.427 144.906Z"/>
<path d="M374.673 144.906H328.094L357.205 8H404L374.673 144.906Z"/>
<path d="M80.7864 179.402C82.0443 178.205 83.4519 177.097 85.0094 176.078C86.3871 175.24 88.0344 174.461 89.9512 173.743C91.868 173.024 94.0244 172.665 96.4205 172.665C99.2957 172.665 101.422 173.324 102.8 174.641C104.238 175.959 105.046 177.576 105.226 179.492H105.765C107.143 178.234 108.64 177.097 110.258 176.078C111.635 175.24 113.253 174.461 115.11 173.743C116.966 173.024 118.943 172.665 121.04 172.665C124.155 172.665 126.67 173.533 128.587 175.27C130.564 176.947 131.552 179.133 131.552 181.828C131.552 183.205 131.313 185.032 130.833 187.308C130.354 189.583 129.815 192.069 129.216 194.764L125.442 212.281H107.742L112.594 188.835C112.773 187.936 112.953 187.068 113.133 186.23C113.312 185.391 113.402 184.702 113.402 184.163C113.402 183.325 113.163 182.636 112.684 182.097C112.204 181.498 111.515 181.199 110.617 181.199C109.479 181.199 108.401 181.618 107.382 182.457C106.424 183.235 105.675 183.894 105.136 184.433L99.2957 212.281H82.4935L87.4353 188.835C87.5551 188.056 87.7049 187.278 87.8846 186.499C88.0643 185.661 88.1541 184.912 88.1541 184.253C88.1541 183.355 87.9146 182.636 87.4353 182.097C87.016 181.498 86.3571 181.199 85.4586 181.199C84.3804 181.199 83.3321 181.588 82.3138 182.367C81.3554 183.145 80.6067 183.804 80.0675 184.343L74.1374 212.281H55.8077L63.9842 173.653H78.6299L80.2472 179.402H80.7864Z"/>
<path d="M140.567 176.977C143.622 175.48 146.737 174.402 149.911 173.743C153.146 173.024 156.74 172.665 160.694 172.665C164.527 172.665 167.702 172.964 170.218 173.563C172.734 174.162 174.74 175.03 176.238 176.168C177.735 177.306 178.784 178.654 179.383 180.211C179.982 181.768 180.281 183.535 180.281 185.511C180.281 186.649 180.191 187.877 180.012 189.194C179.892 190.512 179.742 191.62 179.562 192.518L175.339 212.281H160.873L159.256 206.532H158.717C156.8 208.628 154.554 210.245 151.978 211.383C149.462 212.461 146.946 213 144.43 213C142.993 213 141.585 212.79 140.207 212.371C138.83 211.952 137.602 211.323 136.524 210.485C135.445 209.586 134.577 208.478 133.918 207.161C133.259 205.783 132.93 204.136 132.93 202.22C132.93 199.106 133.768 196.65 135.445 194.854C137.182 192.997 139.429 191.62 142.184 190.721C145 189.763 148.144 189.164 151.619 188.925C155.153 188.685 158.687 188.565 162.221 188.565C162.341 187.966 162.491 187.128 162.67 186.05C162.85 184.912 162.94 183.924 162.94 183.085C162.94 182.007 162.64 181.019 162.041 180.121C161.502 179.163 160.334 178.684 158.537 178.684C156.441 178.684 154.883 179.312 153.865 180.57C152.906 181.768 152.277 183.235 151.978 184.972H138.86L140.567 176.977ZM161.233 192.787H159.615C157.878 192.787 156.381 193.027 155.123 193.506C153.925 193.925 152.936 194.494 152.158 195.213C151.439 195.932 150.9 196.74 150.54 197.638C150.181 198.537 150.001 199.435 150.001 200.334C150.001 201.771 150.361 202.849 151.079 203.567C151.858 204.286 152.757 204.646 153.775 204.646C155.033 204.646 156.261 204.196 157.459 203.298C158.717 202.4 159.496 201.202 159.795 199.705L161.233 192.787Z"/>
<path d="M211.258 184.972C211.318 184.673 211.378 184.373 211.438 184.074C211.498 183.774 211.528 183.445 211.528 183.085C211.528 182.007 211.318 181.019 210.899 180.121C210.539 179.163 209.79 178.684 208.652 178.684C207.634 178.684 206.616 179.133 205.597 180.031C204.579 180.87 204.07 182.007 204.07 183.445C204.07 184.403 204.31 185.182 204.789 185.78C205.328 186.319 206.017 186.769 206.855 187.128C207.694 187.487 208.622 187.787 209.641 188.026C210.719 188.266 211.767 188.505 212.785 188.745C214.223 189.104 215.571 189.553 216.829 190.092C218.147 190.572 219.315 191.23 220.333 192.069C221.351 192.907 222.16 193.955 222.759 195.213C223.358 196.411 223.657 197.908 223.657 199.705C223.657 202.22 223.058 204.346 221.86 206.083C220.722 207.76 219.105 209.137 217.008 210.215C214.972 211.233 212.546 211.952 209.731 212.371C206.975 212.79 204.01 213 200.835 213C195.983 213 191.97 212.641 188.795 211.922C185.62 211.203 183.404 210.515 182.146 209.856L184.033 200.872H196.163C196.103 201.172 196.073 201.471 196.073 201.771C196.073 202.01 196.073 202.28 196.073 202.579C196.073 203.957 196.373 205.065 196.972 205.903C197.631 206.682 198.739 207.071 200.296 207.071C202.033 207.071 203.261 206.592 203.98 205.634C204.759 204.616 205.148 203.687 205.148 202.849C205.148 202.01 204.819 201.292 204.16 200.693C203.561 200.034 202.782 199.495 201.824 199.076C200.865 198.597 199.787 198.207 198.589 197.908C197.451 197.549 196.343 197.219 195.265 196.92C194.486 196.74 193.587 196.441 192.569 196.021C191.611 195.602 190.682 195.003 189.784 194.225C188.885 193.446 188.136 192.458 187.537 191.26C186.938 190.003 186.639 188.446 186.639 186.589C186.639 183.954 187.268 181.768 188.526 180.031C189.843 178.234 191.521 176.797 193.557 175.719C195.654 174.641 197.99 173.863 200.566 173.383C203.201 172.904 205.837 172.665 208.473 172.665C211.767 172.665 214.882 172.964 217.817 173.563C220.752 174.162 223.148 174.941 225.005 175.899L222.939 184.972H211.258Z"/>
<path d="M230.89 173.653C233.106 173.174 235.053 172.635 236.73 172.036C238.407 171.437 239.935 170.688 241.313 169.79C242.75 168.892 244.098 167.784 245.356 166.466C246.674 165.149 248.081 163.532 249.579 161.615H258.834L256.228 173.653H263.236L262.068 179.672H254.97L251.286 197.189C250.987 198.567 250.747 199.794 250.567 200.872C250.387 201.95 250.298 202.789 250.298 203.388C250.298 204.586 250.717 205.334 251.556 205.634C252.454 205.933 254.101 206.083 256.497 206.083L255.15 212.281C254.73 212.401 254.071 212.491 253.173 212.551C252.334 212.611 251.376 212.671 250.298 212.731C249.279 212.85 248.201 212.91 247.063 212.91C245.985 212.97 245.026 213 244.188 213C242.69 213 241.223 212.88 239.785 212.641C238.347 212.461 237.06 212.072 235.921 211.473C234.783 210.814 233.855 209.886 233.136 208.688C232.477 207.49 232.148 205.873 232.148 203.837C232.148 203.118 232.178 202.22 232.238 201.142C232.357 200.064 232.567 198.866 232.867 197.549L236.64 179.672H229.632L230.89 173.653Z"/>
<path d="M280.74 194.225C280.501 195.542 280.321 196.8 280.201 197.998C280.141 199.196 280.111 200.274 280.111 201.232C280.111 201.771 280.141 202.37 280.201 203.028C280.261 203.687 280.381 204.316 280.561 204.915C280.8 205.454 281.1 205.933 281.459 206.352C281.878 206.712 282.448 206.891 283.166 206.891C283.705 206.891 284.304 206.712 284.963 206.352C285.682 205.993 286.371 205.484 287.03 204.825C287.749 204.166 288.408 203.358 289.007 202.4C289.666 201.441 290.175 200.363 290.534 199.166H305.27L302.934 208.778C301.736 209.556 300.358 210.215 298.8 210.754C297.243 211.293 295.596 211.742 293.859 212.102C292.122 212.401 290.354 212.611 288.557 212.731C286.76 212.91 285.053 213 283.436 213C280.441 213 277.655 212.731 275.08 212.192C272.504 211.653 270.258 210.724 268.341 209.407C266.424 208.089 264.897 206.352 263.758 204.196C262.68 201.98 262.141 199.255 262.141 196.021C262.141 193.087 262.59 190.212 263.489 187.397C264.447 184.583 266.005 182.097 268.161 179.941C270.378 177.725 273.313 175.959 276.967 174.641C280.68 173.324 285.293 172.665 290.804 172.665C296.794 172.665 301.286 173.593 304.281 175.45C307.336 177.306 308.864 180.211 308.864 184.163C308.864 185.78 308.624 187.547 308.145 189.464C307.666 191.32 306.947 192.907 305.989 194.225H280.74ZM292.691 183.535C292.691 181.678 292.391 180.42 291.792 179.762C291.193 179.103 290.474 178.773 289.636 178.773C288.677 178.773 287.779 179.103 286.94 179.762C286.161 180.361 285.443 181.199 284.784 182.277C284.125 183.295 283.526 184.493 282.987 185.87C282.448 187.188 281.998 188.595 281.639 190.092H291.882C292.002 189.374 292.122 188.625 292.241 187.847C292.361 187.188 292.451 186.469 292.511 185.691C292.631 184.912 292.691 184.193 292.691 183.535Z"/>
<path d="M317.568 173.653H332.214L333.562 180.39H334.191C335.568 178.234 337.335 176.408 339.492 174.911C341.648 173.413 344.494 172.665 348.028 172.665C348.267 172.665 348.627 172.695 349.106 172.755C349.645 172.755 350.214 172.844 350.813 173.024C351.472 173.144 352.131 173.353 352.79 173.653C353.509 173.892 354.197 174.252 354.856 174.731L350.903 193.237H341.109C340.989 189.524 340.66 186.948 340.121 185.511C339.582 184.014 338.713 183.265 337.515 183.265C336.916 183.265 336.257 183.415 335.538 183.714C334.879 183.954 334.191 184.523 333.472 185.421L327.721 212.281H309.392L317.568 173.653Z"/>
</mask>
<path d="M144.189 39.2621C144.189 43.4303 143.542 47.1674 142.248 50.4733C141.098 53.7791 139.445 56.7257 137.289 59.3129C135.132 61.9001 132.616 64.1998 129.741 66.2121C126.866 68.2244 123.703 70.0929 120.253 71.8177C121.834 72.3927 123.703 73.3269 125.859 74.6205C128.016 75.7704 130.1 77.4233 132.113 79.5793C134.126 81.7353 135.779 84.5381 137.073 87.9877C138.51 91.2936 139.229 95.39 139.229 100.277C139.229 106.745 137.864 112.71 135.132 118.172C132.401 123.634 128.303 128.377 122.84 132.401C117.521 136.282 110.908 139.372 103.001 141.672C95.2381 143.828 86.253 144.906 76.0459 144.906H12L41.1118 8H97.8259C103.433 8 108.967 8.4312 114.43 9.29361C120.037 10.0123 124.997 11.5215 129.31 13.8212C133.766 16.121 137.36 19.355 140.092 23.5232C142.823 27.5478 144.189 32.794 144.189 39.2621ZM85.5342 65.3497C88.697 65.3497 91.3566 64.4154 93.513 62.5469C95.8132 60.6784 97.6821 58.3786 99.1197 55.6477C100.557 52.773 101.636 49.7546 102.354 46.5925C103.073 43.2866 103.433 40.3401 103.433 37.7529C103.433 33.5846 102.426 30.0631 100.414 27.1884C98.5447 24.17 95.5257 22.6608 91.3566 22.6608H84.8873L75.6146 65.3497H85.5342ZM70.0079 131.323C74.3208 131.323 77.9148 130.102 80.7901 127.658C83.6653 125.215 86.0374 122.196 87.9063 118.603C89.7752 115.01 91.0691 111.273 91.7879 107.392C92.6504 103.367 93.0817 99.8458 93.0817 96.8274C93.0817 91.7967 92.0035 87.844 89.8471 84.9693C87.8344 81.9509 84.5279 80.4417 79.9275 80.4417H71.9487L61.3822 131.323H70.0079Z" fill="white"/>
<path d="M304.427 144.906H256.554L276.393 51.7669L225.286 144.906H195.959L186.255 48.5329L165.553 144.906H146.145L175.257 8H230.246L236.931 85.1849L278.334 8H333.754L304.427 144.906Z" fill="white"/>
<path d="M374.673 144.906H328.094L357.205 8H404L374.673 144.906Z" fill="white"/>
<path d="M80.7864 179.402C82.0443 178.205 83.4519 177.097 85.0094 176.078C86.3871 175.24 88.0344 174.461 89.9512 173.743C91.868 173.024 94.0244 172.665 96.4205 172.665C99.2957 172.665 101.422 173.324 102.8 174.641C104.238 175.959 105.046 177.576 105.226 179.492H105.765C107.143 178.234 108.64 177.097 110.258 176.078C111.635 175.24 113.253 174.461 115.11 173.743C116.966 173.024 118.943 172.665 121.04 172.665C124.155 172.665 126.67 173.533 128.587 175.27C130.564 176.947 131.552 179.133 131.552 181.828C131.552 183.205 131.313 185.032 130.833 187.308C130.354 189.583 129.815 192.069 129.216 194.764L125.442 212.281H107.742L112.594 188.835C112.773 187.936 112.953 187.068 113.133 186.23C113.312 185.391 113.402 184.702 113.402 184.163C113.402 183.325 113.163 182.636 112.684 182.097C112.204 181.498 111.515 181.199 110.617 181.199C109.479 181.199 108.401 181.618 107.382 182.457C106.424 183.235 105.675 183.894 105.136 184.433L99.2957 212.281H82.4935L87.4353 188.835C87.5551 188.056 87.7049 187.278 87.8846 186.499C88.0643 185.661 88.1541 184.912 88.1541 184.253C88.1541 183.355 87.9146 182.636 87.4353 182.097C87.016 181.498 86.3571 181.199 85.4586 181.199C84.3804 181.199 83.3321 181.588 82.3138 182.367C81.3554 183.145 80.6067 183.804 80.0675 184.343L74.1374 212.281H55.8077L63.9842 173.653H78.6299L80.2472 179.402H80.7864Z" fill="white"/>
<path d="M140.567 176.977C143.622 175.48 146.737 174.402 149.911 173.743C153.146 173.024 156.74 172.665 160.694 172.665C164.527 172.665 167.702 172.964 170.218 173.563C172.734 174.162 174.74 175.03 176.238 176.168C177.735 177.306 178.784 178.654 179.383 180.211C179.982 181.768 180.281 183.535 180.281 185.511C180.281 186.649 180.191 187.877 180.012 189.194C179.892 190.512 179.742 191.62 179.562 192.518L175.339 212.281H160.873L159.256 206.532H158.717C156.8 208.628 154.554 210.245 151.978 211.383C149.462 212.461 146.946 213 144.43 213C142.993 213 141.585 212.79 140.207 212.371C138.83 211.952 137.602 211.323 136.524 210.485C135.445 209.586 134.577 208.478 133.918 207.161C133.259 205.783 132.93 204.136 132.93 202.22C132.93 199.106 133.768 196.65 135.445 194.854C137.182 192.997 139.429 191.62 142.184 190.721C145 189.763 148.144 189.164 151.619 188.925C155.153 188.685 158.687 188.565 162.221 188.565C162.341 187.966 162.491 187.128 162.67 186.05C162.85 184.912 162.94 183.924 162.94 183.085C162.94 182.007 162.64 181.019 162.041 180.121C161.502 179.163 160.334 178.684 158.537 178.684C156.441 178.684 154.883 179.312 153.865 180.57C152.906 181.768 152.277 183.235 151.978 184.972H138.86L140.567 176.977ZM161.233 192.787H159.615C157.878 192.787 156.381 193.027 155.123 193.506C153.925 193.925 152.936 194.494 152.158 195.213C151.439 195.932 150.9 196.74 150.54 197.638C150.181 198.537 150.001 199.435 150.001 200.334C150.001 201.771 150.361 202.849 151.079 203.567C151.858 204.286 152.757 204.646 153.775 204.646C155.033 204.646 156.261 204.196 157.459 203.298C158.717 202.4 159.496 201.202 159.795 199.705L161.233 192.787Z" fill="white"/>
<path d="M211.258 184.972C211.318 184.673 211.378 184.373 211.438 184.074C211.498 183.774 211.528 183.445 211.528 183.085C211.528 182.007 211.318 181.019 210.899 180.121C210.539 179.163 209.79 178.684 208.652 178.684C207.634 178.684 206.616 179.133 205.597 180.031C204.579 180.87 204.07 182.007 204.07 183.445C204.07 184.403 204.31 185.182 204.789 185.78C205.328 186.319 206.017 186.769 206.855 187.128C207.694 187.487 208.622 187.787 209.641 188.026C210.719 188.266 211.767 188.505 212.785 188.745C214.223 189.104 215.571 189.553 216.829 190.092C218.147 190.572 219.315 191.23 220.333 192.069C221.351 192.907 222.16 193.955 222.759 195.213C223.358 196.411 223.657 197.908 223.657 199.705C223.657 202.22 223.058 204.346 221.86 206.083C220.722 207.76 219.105 209.137 217.008 210.215C214.972 211.233 212.546 211.952 209.731 212.371C206.975 212.79 204.01 213 200.835 213C195.983 213 191.97 212.641 188.795 211.922C185.62 211.203 183.404 210.515 182.146 209.856L184.033 200.872H196.163C196.103 201.172 196.073 201.471 196.073 201.771C196.073 202.01 196.073 202.28 196.073 202.579C196.073 203.957 196.373 205.065 196.972 205.903C197.631 206.682 198.739 207.071 200.296 207.071C202.033 207.071 203.261 206.592 203.98 205.634C204.759 204.616 205.148 203.687 205.148 202.849C205.148 202.01 204.819 201.292 204.16 200.693C203.561 200.034 202.782 199.495 201.824 199.076C200.865 198.597 199.787 198.207 198.589 197.908C197.451 197.549 196.343 197.219 195.265 196.92C194.486 196.74 193.587 196.441 192.569 196.021C191.611 195.602 190.682 195.003 189.784 194.225C188.885 193.446 188.136 192.458 187.537 191.26C186.938 190.003 186.639 188.446 186.639 186.589C186.639 183.954 187.268 181.768 188.526 180.031C189.843 178.234 191.521 176.797 193.557 175.719C195.654 174.641 197.99 173.863 200.566 173.383C203.201 172.904 205.837 172.665 208.473 172.665C211.767 172.665 214.882 172.964 217.817 173.563C220.752 174.162 223.148 174.941 225.005 175.899L222.939 184.972H211.258Z" fill="white"/>
<path d="M230.89 173.653C233.106 173.174 235.053 172.635 236.73 172.036C238.407 171.437 239.935 170.688 241.313 169.79C242.75 168.892 244.098 167.784 245.356 166.466C246.674 165.149 248.081 163.532 249.579 161.615H258.834L256.228 173.653H263.236L262.068 179.672H254.97L251.286 197.189C250.987 198.567 250.747 199.794 250.567 200.872C250.387 201.95 250.298 202.789 250.298 203.388C250.298 204.586 250.717 205.334 251.556 205.634C252.454 205.933 254.101 206.083 256.497 206.083L255.15 212.281C254.73 212.401 254.071 212.491 253.173 212.551C252.334 212.611 251.376 212.671 250.298 212.731C249.279 212.85 248.201 212.91 247.063 212.91C245.985 212.97 245.026 213 244.188 213C242.69 213 241.223 212.88 239.785 212.641C238.347 212.461 237.06 212.072 235.921 211.473C234.783 210.814 233.855 209.886 233.136 208.688C232.477 207.49 232.148 205.873 232.148 203.837C232.148 203.118 232.178 202.22 232.238 201.142C232.357 200.064 232.567 198.866 232.867 197.549L236.64 179.672H229.632L230.89 173.653Z" fill="white"/>
<path d="M280.74 194.225C280.501 195.542 280.321 196.8 280.201 197.998C280.141 199.196 280.111 200.274 280.111 201.232C280.111 201.771 280.141 202.37 280.201 203.028C280.261 203.687 280.381 204.316 280.561 204.915C280.8 205.454 281.1 205.933 281.459 206.352C281.878 206.712 282.448 206.891 283.166 206.891C283.705 206.891 284.304 206.712 284.963 206.352C285.682 205.993 286.371 205.484 287.03 204.825C287.749 204.166 288.408 203.358 289.007 202.4C289.666 201.441 290.175 200.363 290.534 199.166H305.27L302.934 208.778C301.736 209.556 300.358 210.215 298.8 210.754C297.243 211.293 295.596 211.742 293.859 212.102C292.122 212.401 290.354 212.611 288.557 212.731C286.76 212.91 285.053 213 283.436 213C280.441 213 277.655 212.731 275.08 212.192C272.504 211.653 270.258 210.724 268.341 209.407C266.424 208.089 264.897 206.352 263.758 204.196C262.68 201.98 262.141 199.255 262.141 196.021C262.141 193.087 262.59 190.212 263.489 187.397C264.447 184.583 266.005 182.097 268.161 179.941C270.378 177.725 273.313 175.959 276.967 174.641C280.68 173.324 285.293 172.665 290.804 172.665C296.794 172.665 301.286 173.593 304.281 175.45C307.336 177.306 308.864 180.211 308.864 184.163C308.864 185.78 308.624 187.547 308.145 189.464C307.666 191.32 306.947 192.907 305.989 194.225H280.74ZM292.691 183.535C292.691 181.678 292.391 180.42 291.792 179.762C291.193 179.103 290.474 178.773 289.636 178.773C288.677 178.773 287.779 179.103 286.94 179.762C286.161 180.361 285.443 181.199 284.784 182.277C284.125 183.295 283.526 184.493 282.987 185.87C282.448 187.188 281.998 188.595 281.639 190.092H291.882C292.002 189.374 292.122 188.625 292.241 187.847C292.361 187.188 292.451 186.469 292.511 185.691C292.631 184.912 292.691 184.193 292.691 183.535Z" fill="white"/>
<path d="M317.568 173.653H332.214L333.562 180.39H334.191C335.568 178.234 337.335 176.408 339.492 174.911C341.648 173.413 344.494 172.665 348.028 172.665C348.267 172.665 348.627 172.695 349.106 172.755C349.645 172.755 350.214 172.844 350.813 173.024C351.472 173.144 352.131 173.353 352.79 173.653C353.509 173.892 354.197 174.252 354.856 174.731L350.903 193.237H341.109C340.989 189.524 340.66 186.948 340.121 185.511C339.582 184.014 338.713 183.265 337.515 183.265C336.916 183.265 336.257 183.415 335.538 183.714C334.879 183.954 334.191 184.523 333.472 185.421L327.721 212.281H309.392L317.568 173.653Z" fill="white"/>
<path d="M144.189 39.2621C144.189 43.4303 143.542 47.1674 142.248 50.4733C141.098 53.7791 139.445 56.7257 137.289 59.3129C135.132 61.9001 132.616 64.1998 129.741 66.2121C126.866 68.2244 123.703 70.0929 120.253 71.8177C121.834 72.3927 123.703 73.3269 125.859 74.6205C128.016 75.7704 130.1 77.4233 132.113 79.5793C134.126 81.7353 135.779 84.5381 137.073 87.9877C138.51 91.2936 139.229 95.39 139.229 100.277C139.229 106.745 137.864 112.71 135.132 118.172C132.401 123.634 128.303 128.377 122.84 132.401C117.521 136.282 110.908 139.372 103.001 141.672C95.2381 143.828 86.253 144.906 76.0459 144.906H12L41.1118 8H97.8259C103.433 8 108.967 8.4312 114.43 9.29361C120.037 10.0123 124.997 11.5215 129.31 13.8212C133.766 16.121 137.36 19.355 140.092 23.5232C142.823 27.5478 144.189 32.794 144.189 39.2621ZM85.5342 65.3497C88.697 65.3497 91.3566 64.4154 93.513 62.5469C95.8132 60.6784 97.6821 58.3786 99.1197 55.6477C100.557 52.773 101.636 49.7546 102.354 46.5925C103.073 43.2866 103.433 40.3401 103.433 37.7529C103.433 33.5846 102.426 30.0631 100.414 27.1884C98.5447 24.17 95.5257 22.6608 91.3566 22.6608H84.8873L75.6146 65.3497H85.5342ZM70.0079 131.323C74.3208 131.323 77.9148 130.102 80.7901 127.658C83.6653 125.215 86.0374 122.196 87.9063 118.603C89.7752 115.01 91.0691 111.273 91.7879 107.392C92.6504 103.367 93.0817 99.8458 93.0817 96.8274C93.0817 91.7967 92.0035 87.844 89.8471 84.9693C87.8344 81.9509 84.5279 80.4417 79.9275 80.4417H71.9487L61.3822 131.323H70.0079Z" stroke="black" stroke-width="16" mask="url(#path-1-outside-1_18_4)"/>
<path d="M304.427 144.906H256.554L276.393 51.7669L225.286 144.906H195.959L186.255 48.5329L165.553 144.906H146.145L175.257 8H230.246L236.931 85.1849L278.334 8H333.754L304.427 144.906Z" stroke="black" stroke-width="16" mask="url(#path-1-outside-1_18_4)"/>
<path d="M374.673 144.906H328.094L357.205 8H404L374.673 144.906Z" stroke="black" stroke-width="16" mask="url(#path-1-outside-1_18_4)"/>
<path d="M80.7864 179.402C82.0443 178.205 83.4519 177.097 85.0094 176.078C86.3871 175.24 88.0344 174.461 89.9512 173.743C91.868 173.024 94.0244 172.665 96.4205 172.665C99.2957 172.665 101.422 173.324 102.8 174.641C104.238 175.959 105.046 177.576 105.226 179.492H105.765C107.143 178.234 108.64 177.097 110.258 176.078C111.635 175.24 113.253 174.461 115.11 173.743C116.966 173.024 118.943 172.665 121.04 172.665C124.155 172.665 126.67 173.533 128.587 175.27C130.564 176.947 131.552 179.133 131.552 181.828C131.552 183.205 131.313 185.032 130.833 187.308C130.354 189.583 129.815 192.069 129.216 194.764L125.442 212.281H107.742L112.594 188.835C112.773 187.936 112.953 187.068 113.133 186.23C113.312 185.391 113.402 184.702 113.402 184.163C113.402 183.325 113.163 182.636 112.684 182.097C112.204 181.498 111.515 181.199 110.617 181.199C109.479 181.199 108.401 181.618 107.382 182.457C106.424 183.235 105.675 183.894 105.136 184.433L99.2957 212.281H82.4935L87.4353 188.835C87.5551 188.056 87.7049 187.278 87.8846 186.499C88.0643 185.661 88.1541 184.912 88.1541 184.253C88.1541 183.355 87.9146 182.636 87.4353 182.097C87.016 181.498 86.3571 181.199 85.4586 181.199C84.3804 181.199 83.3321 181.588 82.3138 182.367C81.3554 183.145 80.6067 183.804 80.0675 184.343L74.1374 212.281H55.8077L63.9842 173.653H78.6299L80.2472 179.402H80.7864Z" stroke="black" stroke-width="16" mask="url(#path-1-outside-1_18_4)"/>
<path d="M140.567 176.977C143.622 175.48 146.737 174.402 149.911 173.743C153.146 173.024 156.74 172.665 160.694 172.665C164.527 172.665 167.702 172.964 170.218 173.563C172.734 174.162 174.74 175.03 176.238 176.168C177.735 177.306 178.784 178.654 179.383 180.211C179.982 181.768 180.281 183.535 180.281 185.511C180.281 186.649 180.191 187.877 180.012 189.194C179.892 190.512 179.742 191.62 179.562 192.518L175.339 212.281H160.873L159.256 206.532H158.717C156.8 208.628 154.554 210.245 151.978 211.383C149.462 212.461 146.946 213 144.43 213C142.993 213 141.585 212.79 140.207 212.371C138.83 211.952 137.602 211.323 136.524 210.485C135.445 209.586 134.577 208.478 133.918 207.161C133.259 205.783 132.93 204.136 132.93 202.22C132.93 199.106 133.768 196.65 135.445 194.854C137.182 192.997 139.429 191.62 142.184 190.721C145 189.763 148.144 189.164 151.619 188.925C155.153 188.685 158.687 188.565 162.221 188.565C162.341 187.966 162.491 187.128 162.67 186.05C162.85 184.912 162.94 183.924 162.94 183.085C162.94 182.007 162.64 181.019 162.041 180.121C161.502 179.163 160.334 178.684 158.537 178.684C156.441 178.684 154.883 179.312 153.865 180.57C152.906 181.768 152.277 183.235 151.978 184.972H138.86L140.567 176.977ZM161.233 192.787H159.615C157.878 192.787 156.381 193.027 155.123 193.506C153.925 193.925 152.936 194.494 152.158 195.213C151.439 195.932 150.9 196.74 150.54 197.638C150.181 198.537 150.001 199.435 150.001 200.334C150.001 201.771 150.361 202.849 151.079 203.567C151.858 204.286 152.757 204.646 153.775 204.646C155.033 204.646 156.261 204.196 157.459 203.298C158.717 202.4 159.496 201.202 159.795 199.705L161.233 192.787Z" stroke="black" stroke-width="16" mask="url(#path-1-outside-1_18_4)"/>
<path d="M211.258 184.972C211.318 184.673 211.378 184.373 211.438 184.074C211.498 183.774 211.528 183.445 211.528 183.085C211.528 182.007 211.318 181.019 210.899 180.121C210.539 179.163 209.79 178.684 208.652 178.684C207.634 178.684 206.616 179.133 205.597 180.031C204.579 180.87 204.07 182.007 204.07 183.445C204.07 184.403 204.31 185.182 204.789 185.78C205.328 186.319 206.017 186.769 206.855 187.128C207.694 187.487 208.622 187.787 209.641 188.026C210.719 188.266 211.767 188.505 212.785 188.745C214.223 189.104 215.571 189.553 216.829 190.092C218.147 190.572 219.315 191.23 220.333 192.069C221.351 192.907 222.16 193.955 222.759 195.213C223.358 196.411 223.657 197.908 223.657 199.705C223.657 202.22 223.058 204.346 221.86 206.083C220.722 207.76 219.105 209.137 217.008 210.215C214.972 211.233 212.546 211.952 209.731 212.371C206.975 212.79 204.01 213 200.835 213C195.983 213 191.97 212.641 188.795 211.922C185.62 211.203 183.404 210.515 182.146 209.856L184.033 200.872H196.163C196.103 201.172 196.073 201.471 196.073 201.771C196.073 202.01 196.073 202.28 196.073 202.579C196.073 203.957 196.373 205.065 196.972 205.903C197.631 206.682 198.739 207.071 200.296 207.071C202.033 207.071 203.261 206.592 203.98 205.634C204.759 204.616 205.148 203.687 205.148 202.849C205.148 202.01 204.819 201.292 204.16 200.693C203.561 200.034 202.782 199.495 201.824 199.076C200.865 198.597 199.787 198.207 198.589 197.908C197.451 197.549 196.343 197.219 195.265 196.92C194.486 196.74 193.587 196.441 192.569 196.021C191.611 195.602 190.682 195.003 189.784 194.225C188.885 193.446 188.136 192.458 187.537 191.26C186.938 190.003 186.639 188.446 186.639 186.589C186.639 183.954 187.268 181.768 188.526 180.031C189.843 178.234 191.521 176.797 193.557 175.719C195.654 174.641 197.99 173.863 200.566 173.383C203.201 172.904 205.837 172.665 208.473 172.665C211.767 172.665 214.882 172.964 217.817 173.563C220.752 174.162 223.148 174.941 225.005 175.899L222.939 184.972H211.258Z" stroke="black" stroke-width="16" mask="url(#path-1-outside-1_18_4)"/>
<path d="M230.89 173.653C233.106 173.174 235.053 172.635 236.73 172.036C238.407 171.437 239.935 170.688 241.313 169.79C242.75 168.892 244.098 167.784 245.356 166.466C246.674 165.149 248.081 163.532 249.579 161.615H258.834L256.228 173.653H263.236L262.068 179.672H254.97L251.286 197.189C250.987 198.567 250.747 199.794 250.567 200.872C250.387 201.95 250.298 202.789 250.298 203.388C250.298 204.586 250.717 205.334 251.556 205.634C252.454 205.933 254.101 206.083 256.497 206.083L255.15 212.281C254.73 212.401 254.071 212.491 253.173 212.551C252.334 212.611 251.376 212.671 250.298 212.731C249.279 212.85 248.201 212.91 247.063 212.91C245.985 212.97 245.026 213 244.188 213C242.69 213 241.223 212.88 239.785 212.641C238.347 212.461 237.06 212.072 235.921 211.473C234.783 210.814 233.855 209.886 233.136 208.688C232.477 207.49 232.148 205.873 232.148 203.837C232.148 203.118 232.178 202.22 232.238 201.142C232.357 200.064 232.567 198.866 232.867 197.549L236.64 179.672H229.632L230.89 173.653Z" stroke="black" stroke-width="16" mask="url(#path-1-outside-1_18_4)"/>
<path d="M280.74 194.225C280.501 195.542 280.321 196.8 280.201 197.998C280.141 199.196 280.111 200.274 280.111 201.232C280.111 201.771 280.141 202.37 280.201 203.028C280.261 203.687 280.381 204.316 280.561 204.915C280.8 205.454 281.1 205.933 281.459 206.352C281.878 206.712 282.448 206.891 283.166 206.891C283.705 206.891 284.304 206.712 284.963 206.352C285.682 205.993 286.371 205.484 287.03 204.825C287.749 204.166 288.408 203.358 289.007 202.4C289.666 201.441 290.175 200.363 290.534 199.166H305.27L302.934 208.778C301.736 209.556 300.358 210.215 298.8 210.754C297.243 211.293 295.596 211.742 293.859 212.102C292.122 212.401 290.354 212.611 288.557 212.731C286.76 212.91 285.053 213 283.436 213C280.441 213 277.655 212.731 275.08 212.192C272.504 211.653 270.258 210.724 268.341 209.407C266.424 208.089 264.897 206.352 263.758 204.196C262.68 201.98 262.141 199.255 262.141 196.021C262.141 193.087 262.59 190.212 263.489 187.397C264.447 184.583 266.005 182.097 268.161 179.941C270.378 177.725 273.313 175.959 276.967 174.641C280.68 173.324 285.293 172.665 290.804 172.665C296.794 172.665 301.286 173.593 304.281 175.45C307.336 177.306 308.864 180.211 308.864 184.163C308.864 185.78 308.624 187.547 308.145 189.464C307.666 191.32 306.947 192.907 305.989 194.225H280.74ZM292.691 183.535C292.691 181.678 292.391 180.42 291.792 179.762C291.193 179.103 290.474 178.773 289.636 178.773C288.677 178.773 287.779 179.103 286.94 179.762C286.161 180.361 285.443 181.199 284.784 182.277C284.125 183.295 283.526 184.493 282.987 185.87C282.448 187.188 281.998 188.595 281.639 190.092H291.882C292.002 189.374 292.122 188.625 292.241 187.847C292.361 187.188 292.451 186.469 292.511 185.691C292.631 184.912 292.691 184.193 292.691 183.535Z" stroke="black" stroke-width="16" mask="url(#path-1-outside-1_18_4)"/>
<path d="M317.568 173.653H332.214L333.562 180.39H334.191C335.568 178.234 337.335 176.408 339.492 174.911C341.648 173.413 344.494 172.665 348.028 172.665C348.267 172.665 348.627 172.695 349.106 172.755C349.645 172.755 350.214 172.844 350.813 173.024C351.472 173.144 352.131 173.353 352.79 173.653C353.509 173.892 354.197 174.252 354.856 174.731L350.903 193.237H341.109C340.989 189.524 340.66 186.948 340.121 185.511C339.582 184.014 338.713 183.265 337.515 183.265C336.916 183.265 336.257 183.415 335.538 183.714C334.879 183.954 334.191 184.523 333.472 185.421L327.721 212.281H309.392L317.568 173.653Z" stroke="black" stroke-width="16" mask="url(#path-1-outside-1_18_4)"/>
</g>
<defs>
<filter id="filter0_d_18_4" x="0.120026" y="0" width="419.775" height="229" filterUnits="userSpaceOnUse" color-interpolation-filters="sRGB">
<feFlood flood-opacity="0" result="BackgroundImageFix"/>
<feColorMatrix in="SourceAlpha" type="matrix" values="0 0 0 0 0 0 0 0 0 0 0 0 0 0 0 0 0 0 127 0" result="hardAlpha"/>
<feOffset dx="2" dy="4"/>
<feGaussianBlur stdDeviation="2"/>
<feComposite in2="hardAlpha" operator="out"/>
<feColorMatrix type="matrix" values="0 0 0 0 0 0 0 0 0 0 0 0 0 0 0 0 0 0 0.25 0"/>
<feBlend mode="normal" in2="BackgroundImageFix" result="effect1_dropShadow_18_4"/>
<feBlend mode="normal" in="SourceGraphic" in2="effect1_dropShadow_18_4" result="shape"/>
</filter>
</defs>
</svg>
